<svg xmlns="http://www.w3.org/2000/svg" width="1565" height="426" viewBox="0 0 1565 426" fill="none"><path fill-rule="evenodd" clip-rule="evenodd" d="M25.8 151.6C36.4667 154.4 47.5333 155.8 59 155.8C72.8667 155.8 84.3333 153.733 93.4 149.6C102.6 145.467 109.467 140 114 133.2C118.667 126.267 121 118.733 121 110.6C121 103.267 119.533 97.2001 116.6 92.4001C113.8 87.4668 110.067 83.5334 105.4 80.6001C100.733 77.5334 95.5333 75.1334 89.8 73.4001C84.2 71.5334 78.5333 70.0001 72.8 68.8001C67.2 67.6001 62 66.4668 57.2 65.4001C52.5333 64.2001 48.7333 62.7334 45.8 61.0001C43 59.1334 41.6 56.6668 41.6 53.6001C41.6 51.2001 42.3333 49.0668 43.8 47.2001C45.2667 45.3334 47.6667 43.8668 51 42.8001C54.3333 41.6001 58.7333 41.0001 64.2 41.0001C70.3333 41.0001 76.6667 41.9334 83.2 43.8001C89.7333 45.5334 96.3333 48.2001 103 51.8001L115.2 22.4001C108.267 18.4001 100.333 15.4001 91.4 13.4001C82.6 11.2668 73.6 10.2001 64.4 10.2001C50.6667 10.2001 39.2 12.2668 30 16.4001C20.8 20.5334 13.8667 26.0001 9.2 32.8001C4.66667 39.6001 2.4 47.2001 2.4 55.6001C2.4 63.0668 3.86667 69.2668 6.8 74.2001C9.73333 79.0001 13.5333 82.9334 18.2 86.0001C22.8667 88.9334 28 91.3334 33.6 93.2001C39.3333 95.0668 45 96.6001 50.6 97.8001C56.3333 99.0001 61.5333 100.2 66.2 101.4C70.8667 102.6 74.6667 104.133 77.6 106C80.5333 107.867 82 110.4 82 113.6C82 115.867 81.2 117.867 79.6 119.6C78.1333 121.2 75.7333 122.533 72.4 123.6C69.0667 124.533 64.6667 125 59.2 125C51.0667 125 42.8667 123.733 34.6 121.2C26.4667 118.533 19.2667 115.2 13 111.2L0 140.4C6.66667 144.933 15.2667 148.667 25.8 151.6ZM153.492 144.6C161.226 151.4 172.026 154.8 185.892 154.8C190.959 154.8 195.826 154.267 200.492 153.2C205.159 152.267 209.092 150.733 212.292 148.6L202.892 122C199.692 124.267 195.826 125.4 191.292 125.4C187.959 125.4 185.226 124.333 183.092 122.2C180.959 119.933 179.892 116.867 179.892 113V77.0001H204.692V48.6001H179.892V20.4001H141.892V48.6001H126.092V77.0001H141.892V113.4C141.892 127.267 145.759 137.667 153.492 144.6ZM248.745 149.6C255.812 153.067 263.745 154.8 272.545 154.8C280.812 154.8 288.479 152.867 295.545 149C299.013 147.037 302.08 144.592 304.745 141.666V153H340.945V44.6001H302.945V96.8001C302.945 102.8 302.012 107.733 300.145 111.6C298.279 115.333 295.812 118.067 292.745 119.8C289.679 121.533 286.279 122.4 282.545 122.4C276.812 122.4 272.345 120.6 269.145 117C266.079 113.4 264.545 107.4 264.545 99.0001V44.6001H226.545V105.2C226.545 116.533 228.479 125.933 232.345 133.4C236.345 140.733 241.812 146.133 248.745 149.6ZM385.622 148C393.755 152.533 402.755 154.8 412.622 154.8C422.355 154.8 430.422 152.8 436.822 148.8C439.673 147.018 442.206 144.813 444.422 142.185V153H480.622V4.6001H442.622V53.9147C440.693 51.9366 438.56 50.2317 436.222 48.8001C429.822 44.8001 421.955 42.8001 412.622 42.8001C402.755 42.8001 393.755 45.0668 385.622 49.6001C377.622 54.1334 371.222 60.6001 366.422 69.0001C361.622 77.2668 359.222 87.1334 359.222 98.6001C359.222 110.2 361.622 120.2 366.422 128.6C371.222 136.867 377.622 143.333 385.622 148ZM432.022 121.6C428.689 123.6 424.889 124.6 420.622 124.6C416.222 124.6 412.289 123.6 408.822 121.6C405.489 119.6 402.822 116.667 400.822 112.8C398.822 108.8 397.822 104.067 397.822 98.6001C397.822 93.1334 398.822 88.5334 400.822 84.8001C402.822 80.9334 405.489 78.0001 408.822 76.0001C412.289 74.0001 416.222 73.0001 420.622 73.0001C424.889 73.0001 428.689 74.0001 432.022 76.0001C435.489 78.0001 438.222 80.9334 440.222 84.8001C442.222 88.5334 443.222 93.1334 443.222 98.6001C443.222 104.067 442.222 108.8 440.222 112.8C438.222 116.667 435.489 119.6 432.022 121.6ZM506.27 190.8C512.137 192.667 517.937 193.6 523.67 193.6C530.87 193.6 537.404 192.533 543.27 190.4C549.27 188.267 554.67 184.533 559.47 179.2C564.404 174 568.737 166.733 572.47 157.4L619.27 44.6001H583.07L556.285 110.835L529.67 44.6001H490.67L537.12 154.407C535.643 157.199 533.96 159.33 532.07 160.8C529.67 162.667 526.404 163.6 522.27 163.6C519.337 163.6 516.337 163 513.27 161.8C510.337 160.733 507.737 159.2 505.47 157.2L492.27 183.8C495.87 186.733 500.537 189.067 506.27 190.8ZM734.097 13.0001L672.297 153H712.697L723.613 125.8H782.981L793.897 153H835.097L773.097 13.0001H734.097ZM771.262 96.6001L753.297 51.8356L735.332 96.6001H771.262ZM888.323 148.8C894.857 152.8 902.99 154.8 912.723 154.8C922.59 154.8 931.523 152.533 939.523 148C947.657 143.333 954.057 136.867 958.723 128.6C963.523 120.2 965.923 110.2 965.923 98.6001C965.923 87.1334 963.523 77.2668 958.723 69.0001C954.057 60.6001 947.657 54.1334 939.523 49.6001C931.523 45.0668 922.59 42.8001 912.723 42.8001C903.523 42.8001 895.657 44.8001 889.123 48.8001C886.715 50.2746 884.515 52.039 882.523 54.0933V4.6001H844.523V153H880.723V142.185C882.939 144.813 885.473 147.018 888.323 148.8ZM916.123 121.6C912.79 123.6 908.99 124.6 904.723 124.6C900.457 124.6 896.59 123.6 893.123 121.6C889.79 119.6 887.057 116.667 884.923 112.8C882.923 108.8 881.923 104.067 881.923 98.6001C881.923 93.1334 882.923 88.5334 884.923 84.8001C887.057 80.9334 889.79 78.0001 893.123 76.0001C896.59 74.0001 900.457 73.0001 904.723 73.0001C908.99 73.0001 912.79 74.0001 916.123 76.0001C919.59 78.0001 922.323 80.9334 924.323 84.8001C926.457 88.5334 927.523 93.1334 927.523 98.6001C927.523 104.067 926.457 108.8 924.323 112.8C922.323 116.667 919.59 119.6 916.123 121.6ZM983.586 44.6001V153H1021.59V103.2C1021.59 93.7334 1023.99 86.9334 1028.79 82.8001C1033.59 78.5334 1039.85 76.4001 1047.59 76.4001C1049.05 76.4001 1050.39 76.4668 1051.59 76.6001C1052.92 76.6001 1054.45 76.7334 1056.19 77.0001V42.8001C1045.92 42.8001 1037.19 44.8668 1029.99 49.0001C1025.96 51.2362 1022.56 54.1182 1019.79 57.6461V44.6001H983.586ZM1178.76 127.679L1089.8 145.393C1082.42 140.844 1076.45 134.979 1071.89 127.8C1066.69 119.267 1064.09 109.533 1064.09 98.6001C1064.09 87.6668 1066.69 78.0001 1071.89 69.6001C1077.22 61.2001 1084.49 54.6668 1093.69 50.0001C1102.89 45.2001 1113.42 42.8001 1125.29 42.8001C1137.16 42.8001 1147.69 45.2001 1156.89 50.0001C1166.22 54.6668 1173.49 61.2001 1178.69 69.6001C1183.89 78.0001 1186.49 87.6668 1186.49 98.6001C1186.49 109.482 1183.92 119.174 1178.76 127.679ZM1209.9 148.125C1211.17 148.943 1212.52 149.702 1213.95 150.4C1219.95 153.333 1227.28 154.8 1235.95 154.8C1245.42 154.8 1253.02 152.933 1258.75 149.2C1262.69 146.605 1265.75 143.199 1267.95 138.982V153H1303.35V121.685L1270.14 131.083L1267.45 131.842L1209.9 148.125ZM1265.35 110.437L1303.35 102.87V92.8001C1303.35 75.6001 1298.48 63.0001 1288.75 55.0001C1279.15 46.8668 1265.55 42.8001 1247.95 42.8001C1239.42 42.8001 1230.82 43.9334 1222.15 46.2001C1213.62 48.3334 1206.28 51.4001 1200.15 55.4001L1212.95 81.2001C1216.68 78.2668 1221.22 76.0001 1226.55 74.4001C1231.88 72.6668 1237.15 71.8001 1242.35 71.8001C1250.35 71.8001 1256.15 73.4668 1259.75 76.8001C1263.14 79.7095 1265 83.7762 1265.3 89.0001H1243.75C1232.55 89.0001 1223.42 90.3334 1216.35 93.0001C1209.28 95.5334 1204.02 99.2668 1200.55 104.2C1197.22 109 1195.55 114.733 1195.55 121.4C1195.55 122.386 1195.59 123.357 1195.66 124.313L1232.68 116.942C1233.19 114.905 1234.28 113.191 1235.95 111.8C1238.48 109.8 1242.82 108.8 1248.95 108.8H1265.35V110.437ZM1324.53 115.694C1325.72 120.35 1327.45 124.652 1329.7 128.6C1334.5 136.867 1340.9 143.333 1348.9 148C1357.04 152.533 1366.04 154.8 1375.9 154.8C1385.64 154.8 1393.7 152.8 1400.1 148.8C1402.95 147.018 1405.49 144.813 1407.7 142.185V153H1443.9V81.918L1418.95 88.9779L1407.55 92.2048L1406.05 92.6276C1406.35 94.4879 1406.5 96.4788 1406.5 98.6001C1406.5 104.067 1405.5 108.8 1403.5 112.8C1401.5 116.667 1398.77 119.6 1395.3 121.6C1391.97 123.6 1388.17 124.6 1383.9 124.6C1379.5 124.6 1375.57 123.6 1372.1 121.6C1368.77 119.6 1366.1 116.667 1364.1 112.8C1362.96 110.505 1362.14 107.969 1361.65 105.191L1324.53 115.694ZM1361.82 91.2279L1322.5 99.0558C1322.5 98.9042 1322.5 98.7523 1322.5 98.6001C1322.5 87.1334 1324.9 77.2668 1329.7 69.0001C1334.5 60.6001 1340.9 54.1334 1348.9 49.6001C1357.04 45.0668 1366.04 42.8001 1375.9 42.8001C1385.24 42.8001 1393.1 44.8001 1399.5 48.8001C1401.84 50.2317 1403.97 51.9365 1405.9 53.9146V4.6001H1443.9V74.8818L1417.86 80.0685L1406.99 82.2326L1402.55 83.1165C1400.66 80.071 1398.25 77.6989 1395.3 76.0001C1391.97 74.0001 1388.17 73.0001 1383.9 73.0001C1379.5 73.0001 1375.57 74.0001 1372.1 76.0001C1368.77 78.0001 1366.1 80.9334 1364.1 84.8001C1363.08 86.7148 1362.31 88.8574 1361.82 91.2279ZM1136.89 121.6C1133.56 123.6 1129.69 124.6 1125.29 124.6C1121.02 124.6 1117.16 123.6 1113.69 121.6C1110.36 119.6 1107.62 116.667 1105.49 112.8C1103.49 108.8 1102.49 104.067 1102.49 98.6001C1102.49 93.1334 1103.49 88.5334 1105.49 84.8001C1107.62 80.9334 1110.36 78.0001 1113.69 76.0001C1117.16 74.0001 1121.02 73.0001 1125.29 73.0001C1129.69 73.0001 1133.56 74.0001 1136.89 76.0001C1140.36 78.0001 1143.09 80.9334 1145.09 84.8001C1147.09 88.5334 1148.09 93.1334 1148.09 98.6001C1148.09 104.067 1147.09 108.8 1145.09 112.8C1143.09 116.667 1140.36 119.6 1136.89 121.6Z" fill="#4A5568"></path><path d="M1461.25 75.1641L1450.92 58.1665L1458.74 56.0641L1469.59 64.5339L1498.65 56.7248L1473.43 15.367L1483.86 12.5637L1522.26 50.181L1551.37 42.5583C1553.48 41.991 1555.54 42.287 1557.55 43.4465C1559.56 44.6059 1560.84 46.2408 1561.41 48.351C1561.97 50.463 1561.67 52.5246 1560.51 54.5357C1559.35 56.5468 1557.71 57.8344 1555.6 58.3986L1526.54 66.2077L1512.04 118.042L1501.61 120.845L1502.84 72.3788L1473.78 80.1878L1468.6 92.9627L1460.78 95.0651L1461.25 75.1641Z" fill="#D8B35A"></path><rect x="5.2998" y="208.5" width="1443" height="217" fill="#EE2C3C" stroke="black"></rect><path d="M80.9598 367V269H123.8C134.44 269 143.773 271.053 151.8 275.16C159.826 279.267 166.08 284.96 170.56 292.24C175.04 299.52 177.28 308.107 177.28 318C177.28 327.8 175.04 336.387 170.56 343.76C166.08 351.04 159.826 356.733 151.8 360.84C143.773 364.947 134.44 367 123.8 367H80.9598ZM99.1598 351.6H122.96C130.333 351.6 136.68 350.2 142 347.4C147.413 344.6 151.566 340.68 154.46 335.64C157.446 330.6 158.94 324.72 158.94 318C158.94 311.187 157.446 305.307 154.46 300.36C151.566 295.32 147.413 291.4 142 288.6C136.68 285.8 130.333 284.4 122.96 284.4H99.1598V351.6ZM216.466 367V328.22L220.526 339.42L177.966 269H197.426L231.586 325.7H220.666L255.106 269H273.026L230.466 339.42L234.666 328.22V367H216.466ZM283.714 367V269H298.694L360.154 344.46H352.734V269H370.794V367H355.814L294.354 291.54H301.774V367H283.714ZM383.194 367L427.294 269H445.214L489.454 367H470.414L432.474 278.66H439.754L401.954 367H383.194ZM403.494 344.32L408.394 330.04H461.314L466.214 344.32H403.494ZM501.917 367V269H516.897L559.737 340.54H551.897L594.037 269H609.017L609.157 367H591.937L591.797 296.02H595.437L559.597 355.8H551.477L515.077 296.02H519.277V367H501.917ZM635.628 367V269H653.828V367H635.628ZM725.695 368.4C718.228 368.4 711.275 367.187 704.835 364.76C698.488 362.24 692.935 358.74 688.175 354.26C683.508 349.687 679.868 344.32 677.255 338.16C674.641 332 673.335 325.28 673.335 318C673.335 310.72 674.641 304 677.255 297.84C679.868 291.68 683.555 286.36 688.315 281.88C693.075 277.307 698.628 273.807 704.975 271.38C711.321 268.86 718.275 267.6 725.835 267.6C733.861 267.6 741.188 269 747.815 271.8C754.441 274.507 760.041 278.567 764.615 283.98L752.855 295.04C749.308 291.213 745.341 288.367 740.955 286.5C736.568 284.54 731.808 283.56 726.675 283.56C721.541 283.56 716.828 284.4 712.535 286.08C708.335 287.76 704.648 290.14 701.475 293.22C698.395 296.3 695.968 299.94 694.195 304.14C692.515 308.34 691.675 312.96 691.675 318C691.675 323.04 692.515 327.66 694.195 331.86C695.968 336.06 698.395 339.7 701.475 342.78C704.648 345.86 708.335 348.24 712.535 349.92C716.828 351.6 721.541 352.44 726.675 352.44C731.808 352.44 736.568 351.507 740.955 349.64C745.341 347.68 749.308 344.74 752.855 340.82L764.615 352.02C760.041 357.34 754.441 361.4 747.815 364.2C741.188 367 733.815 368.4 725.695 368.4ZM843.845 367L811.365 269H830.265L859.245 357.62H849.865L879.965 269H896.765L926.025 357.62H916.925L946.605 269H963.965L931.485 367H912.165L885.425 287.06H890.465L863.305 367H843.845ZM1023.75 368.4C1016.1 368.4 1009.05 367.14 1002.61 364.62C996.175 362.1 990.575 358.6 985.815 354.12C981.055 349.547 977.368 344.227 974.755 338.16C972.141 332 970.835 325.28 970.835 318C970.835 310.72 972.141 304.047 974.755 297.98C977.368 291.82 981.055 286.5 985.815 282.02C990.575 277.447 996.175 273.9 1002.61 271.38C1009.05 268.86 1016.05 267.6 1023.61 267.6C1031.27 267.6 1038.27 268.86 1044.61 271.38C1051.05 273.9 1056.65 277.447 1061.41 282.02C1066.17 286.5 1069.86 291.82 1072.47 297.98C1075.09 304.047 1076.39 310.72 1076.39 318C1076.39 325.28 1075.09 332 1072.47 338.16C1069.86 344.32 1066.17 349.64 1061.41 354.12C1056.65 358.6 1051.05 362.1 1044.61 364.62C1038.27 367.14 1031.31 368.4 1023.75 368.4ZM1023.61 352.44C1028.56 352.44 1033.13 351.6 1037.33 349.92C1041.53 348.24 1045.17 345.86 1048.25 342.78C1051.33 339.607 1053.71 335.967 1055.39 331.86C1057.17 327.66 1058.05 323.04 1058.05 318C1058.05 312.96 1057.17 308.387 1055.39 304.28C1053.71 300.08 1051.33 296.44 1048.25 293.36C1045.17 290.187 1041.53 287.76 1037.33 286.08C1033.13 284.4 1028.56 283.56 1023.61 283.56C1018.67 283.56 1014.09 284.4 1009.89 286.08C1005.79 287.76 1002.15 290.187 998.975 293.36C995.895 296.44 993.468 300.08 991.695 304.28C990.015 308.387 989.175 312.96 989.175 318C989.175 322.947 990.015 327.52 991.695 331.72C993.468 335.92 995.895 339.607 998.975 342.78C1002.05 345.86 1005.69 348.24 1009.89 349.92C1014.09 351.6 1018.67 352.44 1023.61 352.44ZM1095.69 367V269H1136.01C1144.69 269 1152.11 270.4 1158.27 273.2C1164.52 276 1169.33 280.013 1172.69 285.24C1176.05 290.467 1177.73 296.673 1177.73 303.86C1177.73 311.047 1176.05 317.253 1172.69 322.48C1169.33 327.613 1164.52 331.58 1158.27 334.38C1152.11 337.087 1144.69 338.44 1136.01 338.44H1105.77L1113.89 330.18V367H1095.69ZM1159.81 367L1135.03 331.44H1154.49L1179.41 367H1159.81ZM1113.89 332.14L1105.77 323.46H1135.17C1143.19 323.46 1149.21 321.733 1153.23 318.28C1157.33 314.827 1159.39 310.02 1159.39 303.86C1159.39 297.607 1157.33 292.8 1153.23 289.44C1149.21 286.08 1143.19 284.4 1135.17 284.4H1105.77L1113.89 275.44V332.14ZM1198.09 367V269H1216.29V351.6H1267.53V367H1198.09ZM1281.9 367V269H1324.74C1335.38 269 1344.71 271.053 1352.74 275.16C1360.76 279.267 1367.02 284.96 1371.5 292.24C1375.98 299.52 1378.22 308.107 1378.22 318C1378.22 327.8 1375.98 336.387 1371.5 343.76C1367.02 351.04 1360.76 356.733 1352.74 360.84C1344.71 364.947 1335.38 367 1324.74 367H1281.9ZM1300.1 351.6H1323.9C1331.27 351.6 1337.62 350.2 1342.94 347.4C1348.35 344.6 1352.5 340.68 1355.4 335.64C1358.38 330.6 1359.88 324.72 1359.88 318C1359.88 311.187 1358.38 305.307 1355.4 300.36C1352.5 295.32 1348.35 291.4 1342.94 288.6C1337.62 285.8 1331.27 284.4 1323.9 284.4H1300.1V351.6Z" fill="white"></path></svg>