<svg xmlns="http://www.w3.org/2000/svg" xmlns:xlink="http://www.w3.org/1999/xlink" width="500" zoomAndPan="magnify" viewBox="0 0 375 374.999991" height="500" preserveAspectRatio="xMidYMid meet" version="1.0"><defs><g/><clipPath id="7520e86263"><path d="M 40.816406 40.816406 L 334.183594 40.816406 L 334.183594 334.183594 L 40.816406 334.183594 Z M 40.816406 40.816406 " clip-rule="nonzero"/></clipPath><clipPath id="09f05daa2c"><path d="M 187.5 40.816406 C 106.488281 40.816406 40.816406 106.488281 40.816406 187.5 C 40.816406 268.511719 106.488281 334.183594 187.5 334.183594 C 268.511719 334.183594 334.183594 268.511719 334.183594 187.5 C 334.183594 106.488281 268.511719 40.816406 187.5 40.816406 Z M 187.5 40.816406 " clip-rule="nonzero"/></clipPath><clipPath id="6231b415ab"><path d="M 0.816406 0.816406 L 294.183594 0.816406 L 294.183594 294.183594 L 0.816406 294.183594 Z M 0.816406 0.816406 " clip-rule="nonzero"/></clipPath><clipPath id="1ddfd2d3df"><path d="M 147.5 0.816406 C 66.488281 0.816406 0.816406 66.488281 0.816406 147.5 C 0.816406 228.511719 66.488281 294.183594 147.5 294.183594 C 228.511719 294.183594 294.183594 228.511719 294.183594 147.5 C 294.183594 66.488281 228.511719 0.816406 147.5 0.816406 Z M 147.5 0.816406 " clip-rule="nonzero"/></clipPath><clipPath id="36b906c684"><rect x="0" width="295" y="0" height="295"/></clipPath><clipPath id="468f24264e"><rect x="0" width="166" y="0" height="247"/></clipPath><clipPath id="102166ac2f"><rect x="0" width="185" y="0" height="184"/></clipPath></defs><g clip-path="url(#7520e86263)"><g clip-path="url(#09f05daa2c)"><g transform="matrix(1, 0, 0, 1, 40, 40)"><g clip-path="url(#36b906c684)"><g clip-path="url(#6231b415ab)"><g clip-path="url(#1ddfd2d3df)"><path fill="#ffffff" d="M 0.816406 0.816406 L 294.183594 0.816406 L 294.183594 294.183594 L 0.816406 294.183594 Z M 0.816406 0.816406 " fill-opacity="1" fill-rule="nonzero"/></g></g></g></g></g></g><g transform="matrix(1, 0, 0, 1, 78, 54)"><g clip-path="url(#468f24264e)"><g fill="#ffffff" fill-opacity="1"><g transform="translate(4.921947, 195.00475)"><g><path d="M 7.230469 -16.894531 L 20.019531 -20.09375 L 23.445312 -6.394531 L 9.324219 -6.394531 L 9.324219 -142.804688 L 23.445312 -142.804688 L 20.019531 -129.105469 L -3.464844 -134.976562 L -3.464844 -163.320312 L 65.007812 -163.320312 C 94.242188 -163.320312 117.007812 -155.46875 133.3125 -139.761719 C 149.765625 -123.910156 157.992188 -102.191406 157.992188 -74.601562 C 157.992188 -47.007812 149.765625 -25.289062 133.3125 -9.441406 C 117.007812 6.265625 94.242188 14.121094 65.007812 14.121094 L -3.464844 14.121094 L -3.464844 -14.222656 Z M 14.082031 10.503906 L 10.65625 -3.195312 L 24.777344 -3.195312 L 24.777344 0 L 10.65625 0 L 10.65625 -14.121094 L 65.007812 -14.121094 C 86.648438 -14.121094 102.882812 -19.339844 113.71875 -29.777344 C 124.40625 -40.074219 129.75 -55.015625 129.75 -74.601562 C 129.75 -94.183594 124.40625 -109.125 113.71875 -119.421875 C 102.882812 -129.859375 86.648438 -135.078125 65.007812 -135.078125 L 10.65625 -135.078125 L 10.65625 -149.199219 L 24.777344 -149.199219 L 24.777344 -146.003906 L 10.65625 -146.003906 L 14.082031 -159.703125 L 37.566406 -153.832031 L 37.566406 4.632812 Z M 65.007812 -19.449219 C 69.296875 -19.449219 72.972656 -20.253906 76.035156 -21.859375 C 79.050781 -23.4375 81.703125 -25.925781 84 -29.324219 C 86.574219 -33.136719 88.582031 -38.558594 90.019531 -45.589844 C 91.640625 -53.519531 92.449219 -63.191406 92.449219 -74.601562 C 92.449219 -86.011719 91.640625 -95.679688 90.019531 -103.609375 C 88.582031 -110.640625 86.574219 -116.0625 84 -119.875 C 81.703125 -123.273438 79.050781 -125.761719 76.035156 -127.34375 C 72.972656 -128.949219 69.296875 -129.75 65.007812 -129.75 L 58.613281 -129.75 L 58.613281 -143.871094 L 72.734375 -143.871094 L 72.734375 -5.328125 L 58.613281 -5.328125 L 58.613281 -19.449219 Z M 65.007812 8.792969 L 44.492188 8.792969 L 44.492188 -157.992188 L 65.007812 -157.992188 C 73.933594 -157.992188 81.980469 -156.113281 89.148438 -152.355469 C 96.367188 -148.570312 102.449219 -143.015625 107.402344 -135.683594 C 116.261719 -122.566406 120.691406 -102.207031 120.691406 -74.601562 C 120.691406 -46.992188 116.261719 -26.632812 107.402344 -13.515625 C 102.449219 -6.1875 96.367188 -0.628906 89.148438 3.15625 C 81.980469 6.914062 73.933594 8.792969 65.007812 8.792969 Z M 65.007812 8.792969 "/></g></g></g><g fill="#070304" fill-opacity="1"><g transform="translate(4.921947, 195.00475)"><g><path d="M 10.65625 -3.203125 L 23.453125 -6.390625 L 23.453125 -142.796875 L 10.65625 -146 L 10.65625 -149.203125 L 65.015625 -149.203125 C 90.441406 -149.203125 109.941406 -142.664062 123.515625 -129.59375 C 137.085938 -116.519531 143.875 -98.1875 143.875 -74.59375 C 143.875 -51.007812 137.085938 -32.679688 123.515625 -19.609375 C 109.941406 -6.535156 90.441406 0 65.015625 0 L 10.65625 0 Z M 65.015625 -5.328125 C 78.222656 -5.328125 88.453125 -10.691406 95.703125 -21.421875 C 102.953125 -32.148438 106.578125 -49.875 106.578125 -74.59375 C 106.578125 -99.320312 102.953125 -117.050781 95.703125 -127.78125 C 88.453125 -138.507812 78.222656 -143.875 65.015625 -143.875 L 58.609375 -143.875 L 58.609375 -5.328125 Z M 65.015625 -5.328125 "/></g></g></g></g></g><g transform="matrix(1, 0, 0, 1, 140, 138)"><g clip-path="url(#102166ac2f)"><g fill="#ffffff" fill-opacity="1"><g transform="translate(14.950531, 144.580235)"><g><path d="M 3.648438 -96.148438 L -13.597656 -99.285156 L -13.597656 -120.8125 L 15.765625 -120.8125 C 23.546875 -120.8125 30.128906 -118.914062 35.507812 -115.117188 C 40.824219 -111.363281 44.59375 -106.546875 46.820312 -100.660156 L 70.582031 -40.078125 L 60.859375 -36.261719 L 50.972656 -39.636719 L 64.847656 -80.3125 L 74.734375 -76.941406 L 65.019531 -73.097656 L 53.355469 -102.582031 L 63.066406 -106.425781 L 61.199219 -96.148438 L 43.949219 -99.285156 L 43.949219 -120.8125 L 73.316406 -120.8125 C 81.113281 -120.8125 87.652344 -118.929688 92.933594 -115.171875 C 98.011719 -111.550781 101.777344 -106.835938 104.226562 -101.019531 L 104.277344 -100.898438 L 128.132812 -40.078125 L 118.40625 -36.261719 L 108.515625 -39.617188 L 131.21875 -106.625 L 141.113281 -103.269531 L 137.230469 -93.574219 L 118.839844 -100.929688 L 118.839844 -120.8125 L 168.902344 -120.8125 L 168.902344 -100.761719 L 149.507812 -93.492188 L 145.839844 -103.269531 L 155.734375 -99.921875 L 117.859375 12.023438 L 98.523438 12.023438 L 67.539062 -66.648438 L 77.257812 -70.476562 L 87.148438 -67.121094 L 60.304688 12.023438 L 40.976562 12.023438 L -4.199219 -102.59375 L 5.519531 -106.425781 Z M 13.105469 -115.664062 L 57.804688 -2.253906 L 48.089844 1.578125 L 48.089844 -8.867188 L 52.816406 -8.867188 L 52.816406 1.578125 L 42.925781 -1.777344 L 76.523438 -100.839844 L 115.355469 -2.25 L 105.636719 1.578125 L 105.636719 -8.867188 L 110.367188 -8.867188 L 110.367188 1.578125 L 100.472656 -1.769531 L 137.535156 -111.3125 L 154.785156 -117.78125 L 158.453125 -108 L 148.007812 -108 L 148.007812 -110.367188 L 158.453125 -110.367188 L 158.453125 -99.921875 L 129.285156 -99.921875 L 129.285156 -110.367188 L 139.730469 -110.367188 L 139.730469 -108 L 129.285156 -108 L 133.164062 -117.699219 L 154.179688 -109.292969 L 119.125 -5.828125 L 84.875 -93.152344 L 94.601562 -96.964844 L 84.972656 -92.910156 C 84.058594 -95.082031 82.671875 -96.828125 80.816406 -98.152344 C 79.160156 -99.332031 76.660156 -99.921875 73.316406 -99.921875 L 54.394531 -99.921875 L 54.394531 -110.367188 L 64.839844 -110.367188 L 64.839844 -108 L 54.394531 -108 L 56.261719 -118.277344 L 70.644531 -115.664062 L 85.863281 -77.207031 L 61.542969 -5.910156 L 27.28125 -93.269531 C 26.566406 -95.164062 25.292969 -96.757812 23.460938 -98.046875 C 21.691406 -99.296875 19.128906 -99.921875 15.765625 -99.921875 L -3.152344 -99.921875 L -3.152344 -110.367188 L 7.292969 -110.367188 L 7.292969 -108 L -3.152344 -108 L -1.285156 -118.277344 L 7.386719 -116.703125 Z M 13.105469 -115.664062 "/></g></g></g><g fill="#e21f26" fill-opacity="1"><g transform="translate(14.950531, 144.580235)"><g><path d="M 5.515625 -106.421875 L -3.15625 -108 L -3.15625 -110.375 L 15.765625 -110.375 C 21.335938 -110.375 25.910156 -109.109375 29.484375 -106.578125 C 33.054688 -104.054688 35.578125 -100.851562 37.046875 -96.96875 L 60.859375 -36.265625 L 74.734375 -76.9375 L 63.0625 -106.421875 L 54.390625 -108 L 54.390625 -110.375 L 73.3125 -110.375 C 78.882812 -110.375 83.40625 -109.132812 86.875 -106.65625 C 90.34375 -104.1875 92.921875 -100.957031 94.609375 -96.96875 L 118.40625 -36.265625 L 141.109375 -103.28125 L 129.296875 -108 L 129.296875 -110.375 L 158.453125 -110.375 L 158.453125 -108 L 145.84375 -103.28125 L 110.375 1.578125 L 105.640625 1.578125 L 77.265625 -70.484375 L 52.8125 1.578125 L 48.09375 1.578125 Z M 5.515625 -106.421875 "/></g></g></g></g></g></svg>